<svg id="Layer_1" data-name="Layer 1" xmlns="http://www.w3.org/2000/svg" viewBox="0 0 499.4 286.5"><title>Arrow_black</title><path d="M301.1,369l1.5-1.5L367.1,303,382,288l49.8-49.9,42-42c9.5-9.6,19-19.4,28.4-29.2s26.6-12.4,37.9-3.6c5.2,4.1,8,9.6,9.7,15.9s.3,10.4-2.2,15.2-7,10.1-11.3,14.5L309.1,436c-2.4,2.5-4.6,5.2-7,7.9l-8.4-8-27.9-27.6q-21.6-21.6-43.3-43.1l-48.6-48.4-49.1-48.9L82.6,226c-7.2-7.2-14.6-14.3-21.7-21.6a33.8,33.8,0,0,1-9.1-14.7,17.1,17.1,0,0,1,.2-10.5,36.8,36.8,0,0,1,5.4-11.3c9.7-12.6,27.3-14.3,39.3-3.2,7.4,6.8,14.3,14.2,21.4,21.4l40.5,40.6,62.5,62.5q31.8,31.9,63.7,63.8l14.7,14.7Z" transform="translate(-51 -157.3)"/></svg>