<svg id="Layer_1" data-name="Layer 1" xmlns="http://www.w3.org/2000/svg" viewBox="0 0 395 386"><title>loading</title><path d="M190.2,386.4l-2.8-.7c-8.8-2.2-13.9-10.2-12.5-19.5s8.9-14.2,17-13.9a16.8,16.8,0,0,1,16.4,15.9A16.6,16.6,0,0,1,194.1,386l-1.3.4Z" transform="translate(-0.5 -0.5)"/><path d="M375.8,283.8c-.1,16.5-12.9,31.1-29.5,33.4-12.6,1.8-23.7-1.4-32.4-10.8s-10.5-18.6-7.3-29.6c4.1-13.9,12.5-24.2,27.4-27.4A34.7,34.7,0,0,1,375.8,283.8Z" transform="translate(-0.5 -0.5)"/><path d="M363.6,165.3c17.2,0,32,14.7,32,31.8s-14.9,31.8-31.9,31.8a31.8,31.8,0,0,1-.1-63.6Z" transform="translate(-0.5 -0.5)"/><path d="M342.3,142.4c-17.8.1-33.6-14.8-33.8-32-.1-19.3,17.6-30.2,31.6-30.3,16.9-.2,31.9,14.7,32.1,31.4C372.3,125,361.5,142.6,342.3,142.4Z" transform="translate(-0.5 -0.5)"/><path d="M249.5,48.4c0-16.3,13.4-29.3,29.2-28.2,10.4.8,24.9,11,26.5,26.3s-11.7,31-30.7,28.8c-10-1.2-18-5.7-22.5-15.2A23.8,23.8,0,0,1,249.5,48.4Z" transform="translate(-0.5 -0.5)"/><path d="M215.8,24.9a24.3,24.3,0,1,1-48.6-.2,24.3,24.3,0,1,1,48.6.2Z" transform="translate(-0.5 -0.5)"/><path d="M82.2,48.3c.4-8.4,3.8-16,12.5-20s17.3-3.4,25,2.6,10.7,18.7,6,28-15.6,13.6-26.1,11a25,25,0,0,1-13.8-8.3C82.7,58.1,82.3,53.6,82.2,48.3Z" transform="translate(-0.5 -0.5)"/><path d="M63.1,111.7c0,11.9-9,20.7-21,20.6s-20-9.4-19.9-21.1S30.9,91,41.2,91C53.7,91,63.1,99.9,63.1,111.7Z" transform="translate(-0.5 -0.5)"/><path d="M41.6,264.4c10.9,0,19.6,8.2,19.7,18.6s-9.1,19.7-19.4,19.8c-8.4,0-19.2-6.4-18.9-19.5C23.2,274.3,28.3,264.3,41.6,264.4Z" transform="translate(-0.5 -0.5)"/><path d="M19,215.7C7.8,215.7.5,208.4.5,197.1a18.6,18.6,0,0,1,18.7-18.8c9.6,0,18.9,9.4,18.9,19A18.6,18.6,0,0,1,19,215.7Z" transform="translate(-0.5 -0.5)"/><path d="M105.3,361.8a15.5,15.5,0,0,1-15.6-12.4c0-.2-.1-.3-.1-.5-.5-6.5,2.7-11.6,7.1-15.8s9.6-3.9,14.8-1.9c8.2,3.1,12.1,15,7.6,22.5C116,358.9,111.8,361.9,105.3,361.8Z" transform="translate(-0.5 -0.5)"/></svg>