<svg id="Layer_1" data-name="Layer 1" xmlns="http://www.w3.org/2000/svg" viewBox="0 0 96.7 23.8"><defs><style>.cls-1{fill:#1b32de;}.cls-2,.cls-3{fill:#fff;}.cls-3{font-size:7.18px;font-family:Ubuntu-Bold, Ubuntu;font-weight:700;}</style></defs><title>Идет набор</title><rect class="cls-1" width="69" height="18" rx="8.5" ry="8.5"/><path class="cls-2" d="M29.5,27.9v1a.9.9,0,0,1-.1.5,1.2,1.2,0,0,1-.5.5l-.5.2H28l-.6-.3A2,2,0,0,1,27,29V26.8c0-.2-.1-.2-.2-.1h-.3l-.5.3-.4.2-.5.3-.3.2h-.5l-.7-.2-.4-.5c0-.1-.1-.3-.1-.4a1.5,1.5,0,0,1,.1-.7l.5-.5.7-.4.5-.3.5-.3c.1,0,.1,0,.1-.1s.1-.1,0-.2h-.2l-.8-.5-.9-.5a1.8,1.8,0,0,1-.5-.7v-.6c.1-.2.1-.4.3-.5s.1-.2.3-.3l.5-.2h.6l.4.2.4.2.8.5.3.2h.1c.1,0,.2,0,.2-.1V19.8c0-.2,0-.3.1-.4a.8.8,0,0,1,.2-.4l.4-.3h1a1,1,0,0,1,.5.4.9.9,0,0,1,.3.5v2.3c0,.1,0,.2.1.2h.2l.3-.2.5-.3.4-.2.4-.2.3-.2h.9l.4.2.3.4a.6.6,0,0,1,.1.4v.2a1.3,1.3,0,0,1-.1.6c-.2.2-.3.4-.6.5l-.6.3-.5.4-.5.2H31a.1.1,0,0,0,0,.2.5.5,0,0,0,.4.2l.4.3.5.3.4.2.4.3c.1.2.3.4.3.6v.3a.7.7,0,0,1-.2.6c0,.1-.1.2-.1.3a1.5,1.5,0,0,1-.7.3h-.9l-.3-.3-.5-.2-.4-.3-.5-.2h-.3ZM31.7,22c0,.4.2.6.5.6a.6.6,0,0,0,.6-.6.6.6,0,0,0-.6-.5A.5.5,0,0,0,31.7,22Zm-2.9-2.3a.5.5,0,0,0-.5-.5.6.6,0,0,0-.6.5.5.5,0,0,0,.6.6A.6.6,0,0,0,28.8,19.7ZM24.9,22a.6.6,0,1,0-.6.6A.6.6,0,0,0,24.9,22Zm0,4.6a.6.6,0,1,0-.6.6A.6.6,0,0,0,24.9,26.6Zm6.8,0a.6.6,0,0,0,.5.6.6.6,0,0,0,.6-.6.6.6,0,0,0-.6-.5A.5.5,0,0,0,31.7,26.6Z" transform="translate(-17 -15.5)"/><text class="cls-3" transform="translate(20.5 11)">Идёт набор</text></svg>