<svg id="Layer_1" data-name="Layer 1" xmlns="http://www.w3.org/2000/svg" viewBox="0 0 555.7 555.5"><defs><style>.cls-1{fill:#fff;}</style></defs><title>profile</title><path d="M313.2,578.2h-25a5.8,5.8,0,0,0-1.8-.4l-7.4-.5a264.5,264.5,0,0,1-45.9-7.4,278.6,278.6,0,0,1-181-145.6A273,273,0,0,1,23.2,290a282.3,282.3,0,0,1,3.3-34.3,271.1,271.1,0,0,1,27.2-82.3q42.9-82.1,126.1-123A271.1,271.1,0,0,1,291.6,22.8a276.1,276.1,0,0,1,60.9,4.7,271.2,271.2,0,0,1,73.1,24.9c55.4,28.4,97.2,70.5,124.9,126.4a263.7,263.7,0,0,1,27.8,109.5,16,16,0,0,0,.3,2.3v19.7a15.2,15.2,0,0,0-.3,2.1c-.1,11.4-1.6,22.8-3.4,34.1a270.7,270.7,0,0,1-25.6,78Q511.5,498.9,439.4,541a273,273,0,0,1-123.9,36.8A9.3,9.3,0,0,0,313.2,578.2ZM137.7,475.1c.8-2.1,1.6-3.8,2.3-5.5a201.3,201.3,0,0,1,18.2-35.1c17.9-27,41.6-47,71.7-59.2a175.1,175.1,0,0,1,53.4-11.8c17.7-1.2,35.3-.9,52.9,2a162.4,162.4,0,0,1,52.4,17.7c24.6,13.4,43.6,32.5,58,56.3A221.5,221.5,0,0,1,463,472.6l1.2,2.5c4-4,7.8-7.6,11.4-11.4,40-42.8,61.4-93.5,65-151.8a224.6,224.6,0,0,0-1.2-39.3A235.7,235.7,0,0,0,527,219.5c-14.9-40.9-39.3-75.3-72.6-103.2C414.6,83,368.6,64.7,316.9,60.8A242.5,242.5,0,0,0,224,72.9a235.3,235.3,0,0,0-102.5,68.5c-38.5,43.8-59,94.9-60.6,153.3a231.7,231.7,0,0,0,7.5,64.8c10.9,41.7,31.4,78,61.9,108.5Z" transform="translate(-23 -22.7)"/><path class="cls-1" d="M313.2,578.2a9.3,9.3,0,0,1,2.3-.4A273,273,0,0,0,439.4,541q72.2-42,109.9-116.5a270.7,270.7,0,0,0,25.6-78c1.8-11.3,3.3-22.7,3.4-34.1a15.2,15.2,0,0,1,.3-2.1V578.2Z" transform="translate(-23 -22.7)"/><path d="M401.7,238c.1,54.7-44.1,99.4-98.6,100.2a100.4,100.4,0,0,1-101.9-98.7c-.9-55.3,43.9-101.4,99.8-101.6A100.1,100.1,0,0,1,401.7,238Z" transform="translate(-23 -22.7)"/></svg>